<?xml version="1.0" encoding="UTF-8"?>
<svg version="1.1" xmlns="http://www.w3.org/2000/svg" width="1024" height="1024">
<path d="M0 0 C337.92 0 675.84 0 1024 0 C1024 337.92 1024 675.84 1024 1024 C686.08 1024 348.16 1024 0 1024 C0 686.08 0 348.16 0 0 Z " fill="#FEFEFE" transform="translate(0,0)"/>
<path d="M0 0 C1.1833342 -0.00335861 2.3666684 -0.00671722 3.58586121 -0.01017761 C6.80704864 -0.01800683 10.02819721 -0.02135261 13.24939299 -0.0219934 C15.26818964 -0.02270789 17.28697969 -0.02484967 19.30577469 -0.02749062 C26.36645176 -0.03671919 33.42711006 -0.04082852 40.48779297 -0.04003906 C47.04124183 -0.03943854 53.59460833 -0.04999177 60.14803636 -0.06578273 C65.79930229 -0.07890855 71.45054146 -0.08422087 77.1018225 -0.08358365 C80.46618538 -0.0833302 83.83041678 -0.0870343 87.19477463 -0.0967617 C90.95153308 -0.10660829 94.70808159 -0.10366518 98.46484375 -0.09765625 C100.10952385 -0.10608551 100.10952385 -0.10608551 101.78742981 -0.11468506 C111.74036286 -0.0744293 120.91331473 1.1977629 129.98681641 5.39526367 C130.67275879 5.70608887 131.35870117 6.01691406 132.06542969 6.3371582 C147.67852812 13.57989081 159.13437149 24.65674844 167.04931641 39.83276367 C167.3827002 40.45546143 167.71608398 41.07815918 168.05957031 41.71972656 C173.4160328 52.41512913 174.30498775 63.74455565 174.24949646 75.52398682 C174.25367979 76.92807525 174.25916273 78.3321603 174.26581627 79.73623919 C174.28016055 83.55800925 174.27606092 87.37956164 174.26864946 91.20134306 C174.2638921 95.33798414 174.27645073 99.47457984 174.28666687 103.61120605 C174.30381465 111.70382854 174.30470263 119.79637323 174.29945397 127.88900915 C174.29540075 134.47649778 174.29686949 141.06396356 174.30220222 147.65145111 C174.30295065 148.59164521 174.30369907 149.53183932 174.30447017 150.50052415 C174.30600179 152.41109493 174.30754014 154.3216657 174.30908514 156.23223647 C174.32279759 174.1308608 174.31738306 192.02944136 174.30589993 209.92806467 C174.29598594 226.25130515 174.30887866 242.57443197 174.33283412 258.89765492 C174.35730832 275.70261338 174.36681159 292.5075191 174.36018139 309.31249499 C174.35670538 318.72914859 174.35881243 328.14571504 174.37643242 337.56235504 C174.39125961 345.58544349 174.39165508 353.60838354 174.37436151 361.6314694 C174.36593145 365.71363685 174.36350149 369.79554047 174.37901306 373.87769318 C174.46351767 397.84831984 173.43965968 421.4603457 164.86181641 444.14526367 C164.60529297 444.83523438 164.34876953 445.52520508 164.08447266 446.23608398 C158.68296408 460.57334179 151.96917654 473.49811039 141.86181641 485.14526367 C141.20181641 485.92643555 140.54181641 486.70760742 139.86181641 487.51245117 C136.8371763 491.0215063 133.7863249 494.24276773 130.26806641 497.25854492 C125.03085043 501.78594841 120.2194416 506.71794514 115.36181641 511.64526367 C110.01774131 517.0660113 104.6811623 522.37878392 98.89892578 527.33081055 C94.69874435 531.07191174 90.80752747 535.13976911 86.86181641 539.14526367 C81.6004479 544.48634988 76.32990494 549.70132254 70.63574219 554.58081055 C68.02948725 556.87930788 65.69152323 559.37421892 63.29931641 561.89526367 C39.22704123 586.2590915 3.84236801 599.29851103 -30.13818359 600.14526367 C-30.84765137 600.16572754 -31.55711914 600.18619141 -32.28808594 600.20727539 C-49.6919122 600.654475 -66.42659973 599.15873883 -83.13818359 594.14526367 C-83.81171875 593.94449219 -84.48525391 593.7437207 -85.17919922 593.53686523 C-111.55859933 585.45365906 -131.4964499 570.12708241 -150.61010742 550.63696289 C-153.63681351 547.56674511 -156.70062447 544.61635363 -159.97412109 541.80932617 C-165.87843918 536.71683396 -171.24831437 531.07891879 -176.71630859 525.52807617 C-180.35134656 521.85958694 -183.96468347 518.22450358 -187.89208984 514.86791992 C-193.579439 509.98265112 -198.88524088 504.69644888 -204.21020508 499.42333984 C-205.44669653 498.20335436 -206.68852065 496.98874849 -207.93579102 495.77978516 C-216.40340825 487.56933839 -223.25123266 479.37674366 -229.13818359 469.14526367 C-229.5701001 468.41525146 -230.0020166 467.68523926 -230.44702148 466.93310547 C-235.05632719 458.89633953 -238.36452001 450.31558618 -241.38818359 441.58276367 C-241.86396851 440.24882568 -241.86396851 440.24882568 -242.34936523 438.88793945 C-248.49355659 420.31818224 -249.75746234 401.41943085 -249.54980469 381.99804688 C-249.51281866 378.42248442 -249.50879048 374.84795271 -249.50927734 371.2722168 C-249.49945812 368.95515068 -249.48780638 366.63809143 -249.47412109 364.32104492 C-249.47189545 363.27394852 -249.4696698 362.22685211 -249.46737671 361.14802551 C-249.21689401 341.39992597 -242.82533986 324.75244688 -229.28271484 310.19995117 C-213.98197881 295.54022958 -193.95644399 289.50258968 -173.22460938 289.74047852 C-151.83058399 290.3856182 -132.55368139 298.04865649 -117.56787109 313.5300293 C-101.51975296 331.660895 -99.49985293 353.58684712 -99.74755859 376.68432617 C-99.75346025 378.55240396 -99.75752827 380.42048844 -99.75976562 382.28857422 C-99.78049951 389.11590675 -99.83634272 395.94309648 -99.88818359 402.77026367 C-99.97068359 418.07401367 -100.05318359 433.37776367 -100.13818359 449.14526367 C-58.88818359 449.14526367 -17.63818359 449.14526367 24.86181641 449.14526367 C24.86181641 350.47526367 24.86181641 251.80526367 24.86181641 150.14526367 C11.99181641 150.14526367 -0.87818359 150.14526367 -14.13818359 150.14526367 C-35.35076409 144.48857554 -51.83548338 136.78631244 -63.33349609 117.56323242 C-74.11851844 98.66490961 -77.30890634 76.25763347 -72.88818359 54.86010742 C-67.56359109 35.58619184 -57.18591595 19.83738114 -40.13818359 9.14526367 C-26.88231156 1.67950345 -14.98241464 -0.00616975 0 0 Z " fill="#000000" transform="translate(299.13818359375,231.854736328125)"/>
<path d="M0 0 C7.87232525 0 7.87232525 0 10.39453125 2.34375 C10.95229248 2.84414795 11.51005371 3.3445459 12.0847168 3.86010742 C12.65488525 4.40127197 13.22505371 4.94243652 13.8125 5.5 C15.04312442 6.61194717 16.27490018 7.72262142 17.5078125 8.83203125 C18.10368164 9.37682129 18.69955078 9.92161133 19.31347656 10.48291016 C21.53271484 12.47919659 23.84283472 14.34098246 26.1875 16.1875 C29.5239146 18.8263498 32.83593214 21.48978015 36.125 24.1875 C40.73923197 27.97169307 45.36690199 31.73893156 50 35.5 C55.37421379 39.86334083 60.73890395 44.23789721 66.09375 48.625 C69.7230529 51.59088194 73.36130563 54.54565306 77 57.5 C82.4881327 61.95625845 87.97405797 66.41494784 93.43359375 70.90625 C95.16336123 72.31744539 96.90594918 73.71305251 98.66015625 75.09375 C126.63507072 97.31267487 146.23842248 127.67378353 152.64160156 163.05419922 C152.95251536 164.74219852 153.31182765 166.42114554 153.6796875 168.09765625 C160.71580483 203.9047465 150.7102627 245.12813676 131.00878906 275.39355469 C125.68440328 283.25801443 119.62584748 290.21916193 113 297 C112.20078125 297.86109375 111.4015625 298.7221875 110.578125 299.609375 C93.99250599 317.06221591 71.78016964 328.14916002 48.4375 333.25 C47.6945166 333.41346924 46.9515332 333.57693848 46.18603516 333.74536133 C31.72915418 336.68343328 16.88656478 336.16005904 2.21191406 336.17700195 C-0.18603613 336.18327682 -2.58398538 336.1899245 -4.98193359 336.19691467 C-12.14016589 336.216023 -19.29839857 336.22672118 -26.45664918 336.23564246 C-29.16058146 336.23916123 -31.86451261 336.24330637 -34.56844394 336.24748212 C-46.51567603 336.26592741 -58.46290819 336.28167576 -70.41015244 336.28938007 C-73.32323966 336.29128942 -76.23632687 336.29320985 -79.14941406 336.29516602 C-80.23523472 336.29589163 -80.23523472 336.29589163 -81.34299114 336.2966319 C-93.06747443 336.30493124 -104.7918557 336.33027688 -116.51629445 336.36274669 C-128.59323262 336.39591664 -140.67011905 336.41383735 -152.74710298 336.41702431 C-159.51204681 336.41917911 -166.27684136 336.42777657 -173.04174042 336.45348549 C-179.40798155 336.47687335 -185.77395521 336.4809564 -192.14022827 336.47072411 C-194.46486555 336.47023133 -196.78951651 336.47647479 -199.11411285 336.49028015 C-215.0387059 336.57949809 -231.02085834 336.10234529 -245.375 328.3125 C-246.02726563 327.9707373 -246.67953125 327.62897461 -247.3515625 327.27685547 C-264.78161328 317.81127425 -276.05007292 302.15723174 -281.9375 283.4375 C-287.51405603 263.31019512 -285.02300256 241.58454356 -275.75 223.125 C-265.75594165 205.83506321 -251.25694249 194.13809819 -231.93200684 188.82525635 C-221.61575705 186.22018231 -211.28573756 186.46903105 -200.71289062 186.54589844 C-198.51351441 186.5470291 -196.31413669 186.5463888 -194.11476135 186.54412842 C-188.19220891 186.54298888 -182.26998583 186.5663743 -176.34750938 186.59442425 C-170.14025961 186.61956555 -163.93300085 186.62178989 -157.72570801 186.62652588 C-145.99285871 186.63891842 -134.26015992 186.67168941 -122.52737665 186.71192384 C-113.1505837 186.7436034 -103.77380689 186.76538724 -94.39697266 186.78027344 C-93.39404983 186.78188142 -93.39404983 186.78188142 -92.37086594 186.78352189 C-86.55328699 186.79277545 -80.73570709 186.80138562 -74.91812706 186.80993271 C-49.94530548 186.84745366 -24.97280139 186.92716941 0 187 C0 125.29 0 63.58 0 0 Z " fill="#000000" transform="translate(792,492)"/>
<path d="M0 0 C2.45004429 -0.0024349 4.90008758 -0.00616094 7.35012817 -0.01106262 C13.25274518 -0.01941278 19.1552494 -0.01405187 25.05785045 -0.00179968 C31.95021665 0.01196412 38.8425548 0.01017028 45.73493126 0.00806699 C58.03457575 0.00489405 70.33416187 0.01645223 82.63378906 0.03613281 C94.54070813 0.05517966 106.44755898 0.06220526 118.35449219 0.05664062 C131.37218478 0.05057475 144.38984758 0.05077089 157.4075377 0.06212646 C158.79645427 0.06333359 160.18537084 0.06453958 161.57428741 0.0657444 C162.25741813 0.06634794 162.94054885 0.06695148 163.64438049 0.06757331 C168.43894663 0.07143903 173.2335016 0.07106428 178.02806854 0.06915855 C184.47971826 0.06680805 190.93129965 0.07540709 197.38293076 0.09121895 C199.74597946 0.0954519 202.10903701 0.09631903 204.47208786 0.09352875 C207.70363434 0.09029228 210.9349229 0.09942531 214.16644287 0.11161804 C215.0950449 0.10783872 216.02364692 0.10405939 216.9803884 0.10016555 C236.86746187 0.23238889 254.66363068 7.94525195 269.07128906 21.5090332 C284.58877466 38.33494584 289.69889909 59.87243628 289.05175781 82.2590332 C288.2066049 98.4131838 281.59251359 115.26573188 270.71191406 127.37231445 C270.01839844 128.16895508 269.32488281 128.9655957 268.61035156 129.78637695 C255.44670232 143.97910626 237.54559177 150.71165746 218.42218757 151.4621774 C216.13913469 151.49654036 213.8582116 151.50105135 211.57492065 151.49256897 C210.71291396 151.49342339 209.85090727 151.49427782 208.96277916 151.49515814 C206.10553532 151.49679106 203.24835162 151.49132777 200.39111328 151.48583984 C198.33055116 151.48555747 196.26998894 151.48571668 194.20942688 151.48628235 C188.63787381 151.48656837 183.06634242 151.48070312 177.49479437 151.47370839 C171.66385859 151.46744243 165.83292227 151.46686849 160.00198364 151.46568298 C148.97023808 151.46257922 137.93850247 151.45437871 126.90676129 151.44433349 C111.99252057 151.43104876 97.07827712 151.42566474 82.16403198 151.41983128 C58.67998523 151.41043817 35.19595947 151.39051287 11.71191406 151.37231445 C11.71191406 215.06231445 11.71191406 278.75231445 11.71191406 344.37231445 C5.71191406 344.37231445 5.71191406 344.37231445 3.48950195 342.84692383 C2.47231079 341.79214844 2.47231079 341.79214844 1.43457031 340.71606445 C0.67337891 339.94004883 -0.0878125 339.1640332 -0.87207031 338.36450195 C-1.64873047 337.54208008 -2.42539062 336.7196582 -3.22558594 335.87231445 C-3.99837891 335.08083008 -4.77117187 334.2893457 -5.56738281 333.47387695 C-9.08146829 329.84988348 -12.49866642 326.16667364 -15.79199219 322.34106445 C-19.72943978 317.78663465 -23.99720543 313.59120032 -28.28808594 309.37231445 C-33.2274242 304.51585099 -37.99959734 299.62209669 -42.51464844 294.3684082 C-45.76998714 290.70435957 -49.29260541 287.30526402 -52.78808594 283.87231445 C-56.91133168 279.82282982 -60.98820294 275.78872497 -64.75683594 271.40356445 C-68.69995986 266.82052785 -72.97918991 262.60891356 -77.28808594 258.37231445 C-82.27635535 253.46774084 -87.0979553 248.52394882 -91.65722656 243.21704102 C-93.66000642 240.95162116 -95.78832011 238.85559088 -97.96630859 236.76025391 C-114.47573438 220.86884173 -127.09087318 201.77786625 -135.28808594 180.37231445 C-135.55459961 179.69297852 -135.82111328 179.01364258 -136.09570312 178.3137207 C-148.64840038 145.78875845 -149.74891542 107.33536299 -135.94042969 74.96606445 C-130.58748487 63.32372585 -124.45897618 53.25558599 -116.28808594 43.37231445 C-115.39476562 42.24889648 -115.39476562 42.24889648 -114.48339844 41.1027832 C-100.75252901 24.44835545 -79.53921621 13.06236178 -59.28808594 6.62231445 C-58.00140015 6.19958252 -58.00140015 6.19958252 -56.6887207 5.76831055 C-38.28772079 0.22135205 -19.04781745 -0.06733664 0 0 Z " fill="#000000" transform="translate(651.2880859375,228.627685546875)"/>
</svg>
